<?xml version="1.0" encoding="utf-8"?>
<!-- Generator: Adobe Illustrator 20.1.0, SVG Export Plug-In . SVG Version: 6.00 Build 0)  -->
<svg width="28px" height="28px" version="1.1" id="Layer_1" xmlns="http://www.w3.org/2000/svg" xmlns:xlink="http://www.w3.org/1999/xlink" x="0px" y="0px"
	 viewBox="0 0 28 28" style="enable-background:new 0 0 28 28;" xml:space="preserve">
<style type="text/css">
	.st0{filter:url(#Adobe_OpacityMaskFilter);}
	.st1{fill:#FFFFFF;}
	.st2{mask:url(#mask-2);fill:#252C26;}
	.st3{font-family:'Arkhip';}
	.st4{font-size:11px;}
	.st5{letter-spacing:-1;}
</style>
<title>Blog icon</title>
<g id="Symbols">
	<g id="PANEL-FOOTER" transform="translate(-1157.000000, -89.000000)">
		<g id="Group-6" transform="translate(1001.000000, 89.000000)">
			<g id="Group">
				<g id="Page-1" transform="translate(156.000000, 0.000000)">
					<g>
						<g id="Group-3" transform="translate(0.000000, 0.172083)">
							<g id="Clip-2">
							</g>
							<defs>
								<filter id="Adobe_OpacityMaskFilter" filterUnits="userSpaceOnUse" x="0" y="0.5" width="27.3" height="27.4">
									<feColorMatrix  type="matrix" values="1 0 0 0 0  0 1 0 0 0  0 0 1 0 0  0 0 0 1 0"/>
								</filter>
							</defs>
							<mask maskUnits="userSpaceOnUse" x="0" y="0.5" width="27.3" height="27.4" id="mask-2">
								<g class="st0">
									<polygon id="path-1" class="st1" points="0,27.8 27.3,27.8 27.3,0.5 0,0.5 									"/>
								</g>
							</mask>
							<path id="Fill-1" class="st2" d="M25.8,0.5H1.6C0.7,0.5,0,1.2,0,2.1v24.2c0,0.9,0.7,1.6,1.6,1.6h24.2c0.9,0,1.6-0.7,1.6-1.6
								V2.1C27.3,1.2,26.6,0.5,25.8,0.5"/>
						</g>
					</g>
				</g>
			</g>
		</g>
	</g>
</g>
<text transform="matrix(1 0 0 1 1.738071e-04 17.7956)" class="st1 st3 st4 st5">Blog</text>
</svg>
