<?xml version="1.0" encoding="UTF-8" standalone="no"?>
<svg width="28px" height="28px" viewBox="0 0 28 28" version="1.1" xmlns="http://www.w3.org/2000/svg" xmlns:xlink="http://www.w3.org/1999/xlink">
    <!-- Generator: Sketch 3.8.1 (29687) - http://www.bohemiancoding.com/sketch -->
    <title>Youtube logo</title>
    <defs>
        <polygon id="path-1" points="0.000331032471 27.8409091 27.2115312 27.8409091 27.2115312 0.596193182 0.000331032471 0.596193182 0.000331032471 27.8409091"></polygon>
    </defs>
    <g id="Symbols" stroke="none" stroke-width="1" fill="none" fill-rule="evenodd">
        <g id="PANEL-FOOTER" transform="translate(-1118.000000, -89.000000)">
            <g id="Group-6" transform="translate(1001.000000, 89.000000)">
                <g id="Group">
                    <g id="Page-1" transform="translate(117.000000, 0.000000)">
                        <g>
                            <path d="M16.2809714,21.5044508 C16.2809714,22.0844697 16.1094966,22.3734848 15.767209,22.3734848 C15.5659413,22.3734848 15.3712942,22.2786932 15.1826057,22.0897727 L15.1826057,18.1164773 C15.3712942,17.9282197 15.5659413,17.8327652 15.767209,17.8327652 C16.1094966,17.8327652 16.2809714,18.1284091 16.2809714,18.719697 L16.2809714,21.5044508 Z M16.3875639,16.7688447 C15.9618561,16.7688447 15.5606448,17.0054924 15.1826057,17.478125 L15.1826057,14.6224432 L13.9955232,14.6224432 L13.9955232,23.3671402 L15.1826057,23.3671402 L15.1826057,22.728125 C15.5718999,23.2133523 15.9737733,23.455303 16.3875639,23.455303 C16.8715333,23.455303 17.184028,23.2073864 17.326372,22.7108902 C17.408468,22.4616477 17.4501781,22.0307765 17.4501781,21.415625 L17.4501781,18.8257576 C17.4501781,18.1993371 17.408468,17.7618371 17.326372,17.5132576 C17.184028,17.0167614 16.8715333,16.7688447 16.3875639,16.7688447 L16.3875639,16.7688447 Z" id="Fill-1" fill="#252C26"></path>
                            <path d="M20.7097886,19.3406155 L19.540582,19.3406155 L19.540582,18.736733 C19.540582,18.1341761 19.735229,17.8332292 20.1251853,17.8332292 C20.5151416,17.8332292 20.7097886,18.1341761 20.7097886,18.736733 L20.7097886,19.3406155 L20.7097886,19.3406155 Z M20.1430611,16.7686458 C19.540582,16.7686458 19.0678676,16.9940246 18.72558,17.4427936 C18.4892228,17.7616383 18.3713753,18.2707292 18.3713753,18.9680777 L18.3713753,21.2569981 C18.3713753,21.9543466 18.4951814,22.4621117 18.7434558,22.7816193 C19.0857433,23.231714 19.5644163,23.455767 20.1781505,23.455767 C20.8044639,23.455767 21.2765162,23.2197822 21.5956315,22.7464867 C21.7373134,22.5337027 21.8260301,22.2970549 21.8617816,22.0365436 C21.8849539,21.8714867 21.8968711,21.6169413 21.8968711,21.2735701 L21.8968711,21.1144792 L20.6919129,21.1144792 L20.6919129,21.4949716 C20.6919129,21.6189299 20.6892646,21.717036 20.683306,21.787964 C20.6773475,21.858892 20.6746992,21.9006534 20.6746992,21.9119223 C20.6038583,22.220161 20.4264248,22.3726231 20.1430611,22.3726231 C19.7411876,22.3726231 19.541244,22.0710133 19.541244,21.4684564 L19.541244,20.3157102 L21.8968711,20.3157102 L21.8968711,18.9680777 C21.8968711,18.282661 21.7730649,17.774233 21.5247906,17.4427936 C21.2056753,16.9940246 20.7455402,16.7686458 20.1430611,16.7686458 L20.1430611,16.7686458 Z" id="Fill-3" fill="#252C26"></path>
                            <path d="M11.7985931,21.8237595 C11.5390637,22.1903314 11.2907893,22.373286 11.0544321,22.373286 C10.8889159,22.373286 10.8001992,22.2844602 10.7889441,22.1068087 C10.7770269,22.0842708 10.7710683,21.9298201 10.7710683,21.646108 L10.7710683,16.8574716 L9.60186166,16.8574716 L9.60186166,22.001411 C9.60186166,22.4508428 9.63761316,22.7696875 9.70845411,22.958608 C9.81504657,23.2907102 10.0626589,23.455767 10.4526151,23.455767 C10.889578,23.455767 11.338458,23.1892898 11.7992552,22.6569981 L11.7992552,23.3669413 L12.9856756,23.3669413 L12.9856756,16.8574716 L11.7992552,16.8574716 L11.7992552,21.8237595 L11.7985931,21.8237595 L11.7985931,21.8237595 Z" id="Fill-5" fill="#252C26"></path>
                            <path d="M13.3402114,10.1704167 C13.7182504,10.1704167 13.9069389,9.86814394 13.9069389,9.26558712 L13.9069389,6.49806818 C13.9069389,5.88357955 13.7182504,5.57600379 13.3402114,5.57600379 C12.9621723,5.57600379 12.7734838,5.88357955 12.7734838,6.49806818 L12.7734838,9.26558712 C12.7734838,9.86814394 12.9621723,10.1704167 13.3402114,10.1704167" id="Fill-7" fill="#252C26"></path>
                            <polygon id="Fill-9" fill="#252C26" points="5.31485874 15.8638826 6.69658828 15.8638826 6.69658828 23.3670076 8.00747686 23.3670076 8.00747686 15.8638826 9.4249579 15.8638826 9.4249579 14.6223106 5.31485874 14.6223106"></polygon>
                            <g id="Group-13" transform="translate(0.000000, 0.066951)">
                                <g id="Clip-12">
                                    <mask id="mask-2" fill="white">
                                        <use xlink:href="#path-1"></use>
                                    </mask>
                                    <g></g>
                                </g>
                                <path d="M22.8554749,24.1761174 C22.8369371,24.2291477 22.8124407,24.2775379 22.7826478,24.3252652 C22.2980162,25.0895644 21.6723649,25.5171212 20.9050316,25.605947 C19.2869449,25.7829356 16.8538562,25.8717614 13.6057656,25.8717614 C10.357675,25.8717614 7.9252484,25.7835985 6.30716168,25.605947 C5.53982841,25.5171212 4.91417704,25.0889015 4.43086963,24.3265909 C4.40107671,24.2795265 4.3765803,24.2311364 4.35804248,24.1787689 C4.02767208,23.2394697 3.86281791,21.5391856 3.86281791,19.0785795 C3.86281791,17.0329356 3.98066547,15.4957197 4.21702265,14.4662689 C4.40571116,13.6363447 4.93403899,13.0231818 5.80001993,12.6281061 C5.82120601,12.6188258 5.85761958,12.6075568 5.88079185,12.6049053 C7.46842359,12.3914583 10.0431941,12.2847348 13.6064277,12.2847348 C16.8657734,12.2847348 19.298862,12.3728977 20.9050316,12.5505492 C21.4128354,12.6102083 21.8617154,12.8137121 22.2516717,13.1630492 C22.6416279,13.5123864 22.8951988,13.946572 23.0137084,14.4662689 C23.2374864,15.4486553 23.3500374,16.9852083 23.3500374,19.0785795 C23.3493754,21.5365341 23.1845212,23.2361553 22.8554749,24.1761174 L22.8554749,24.1761174 Z M8.3973007,2.28123106 L9.33677085,5.7394697 L10.2398274,2.28123106 L11.5685918,2.28123106 L9.97433939,7.53189394 L9.97433939,11.0961932 L8.66345081,11.0961932 L8.66345081,7.53189394 C8.53302401,6.88094697 8.26157739,5.94695076 7.84844886,4.72924242 C7.76569074,4.45746212 7.62930537,4.04912879 7.44061686,3.5049053 C7.25192835,2.9613447 7.10958439,2.55367424 7.01557116,2.28123106 L8.3973007,2.28123106 L8.3973007,2.28123106 Z M11.5858055,6.66219697 C11.5858055,5.9767803 11.7102737,5.46172348 11.958548,5.11901515 C12.2770013,4.67024621 12.7377985,4.44486742 13.3402776,4.44486742 C13.9182603,4.44486742 14.3790575,4.67024621 14.721345,5.11901515 C14.9696194,5.46238636 15.0934255,5.9767803 15.0934255,6.66219697 L15.0934255,8.96768939 C15.0934255,9.6769697 14.9696194,10.1920265 14.721345,10.5108712 C14.3790575,10.960303 13.9182603,11.1850189 13.3402776,11.1850189 C12.7377985,11.1850189 12.2770013,10.960303 11.958548,10.5108712 C11.7102737,10.1688258 11.5858055,9.65443182 11.5858055,8.96768939 L11.5858055,6.66219697 L11.5858055,6.66219697 Z M16.0686472,4.53369318 L17.2550676,4.53369318 L17.2550676,9.358125 C17.2550676,9.64183712 17.2610262,9.795625 17.2729433,9.81948864 C17.2848605,10.009072 17.3795358,10.1032008 17.5563071,10.1032008 C17.7926643,10.1032008 18.0402766,9.92024621 18.3004681,9.55301136 L18.3004681,4.53369318 L19.4875506,4.53369318 L19.4875506,11.0961932 L18.3004681,11.0961932 L18.3004681,10.3869129 C17.8158366,10.9192045 17.360998,11.1850189 16.9359523,11.1850189 C16.5579132,11.1850189 16.3043423,11.025928 16.1745776,10.7064205 C16.1037366,10.4936364 16.0679851,10.1688258 16.0679851,9.73066288 L16.0679851,4.53369318 L16.0686472,4.53369318 Z M22.1093277,0.596193182 L4.36466313,0.596193182 C3.86414204,0.596193182 3.36891746,0.731420455 2.93923731,0.988617424 C0.979525083,2.16257576 0.000331032471,3.73293561 0.000331032471,5.70433712 L0.000331032471,23.4661742 C0.000331032471,23.9673106 0.135392281,24.4631439 0.391611414,24.8933523 C1.5608181,26.8567992 3.13057408,27.8411742 5.10220348,27.8411742 L22.8369371,27.8411742 C23.3374582,27.8411742 23.8326828,27.705947 24.263025,27.4500758 C26.2280337,26.2807576 27.2118622,24.7070833 27.2118622,22.7323674 L27.2118622,4.96589015 C27.2118622,4.46607955 27.0761389,3.97090909 26.8205819,3.54136364 C25.650051,1.57924242 24.0802951,0.596193182 22.1093277,0.596193182 L22.1093277,0.596193182 Z" id="Fill-11" fill="#252C26"></path>
                            </g>
                        </g>
                    </g>
                </g>
            </g>
        </g>
    </g>
</svg>