<?xml version="1.0" encoding="UTF-8" standalone="no"?>
<svg width="28px" height="28px" viewBox="0 0 28 28" version="1.1" xmlns="http://www.w3.org/2000/svg" xmlns:xlink="http://www.w3.org/1999/xlink">
    <!-- Generator: Sketch 3.8.1 (29687) - http://www.bohemiancoding.com/sketch -->
    <title>Pinterest logo</title>
    <defs>
        <polygon id="path-1" points="27.3166671 27.3501136 0 27.3501136 0 0 27.3166671 0 27.3166671 27.3501136"></polygon>
    </defs>
    <g id="Symbols" stroke="none" stroke-width="1" fill="none" fill-rule="evenodd">
        <g id="PANEL-FOOTER" transform="translate(-1040.000000, -90.000000)">
            <g id="Group-6" transform="translate(1001.000000, 89.000000)">
                <g id="Group">
                    <g id="tis-pinterest" transform="translate(39.000000, 1.000000)">
                        <mask id="mask-2" fill="white">
                            <use xlink:href="#path-1"></use>
                        </mask>
                        <g id="Clip-2"></g>
                        <g id="Fill-1" mask="url(#mask-2)" fill="#252C26">
                            <path d="M13.6582674,0 C6.11536146,0 -0.000132412988,6.12301136 -0.000132412988,13.6751894 C-0.000132412988,19.2738636 3.3631575,24.0850379 8.17636963,26.1996212 C8.13796986,25.2450758 8.16776278,24.0982955 8.41272681,23.0602273 C8.67622866,21.9499053 10.1705092,15.6081439 10.1705092,15.6081439 C10.1705092,15.6081439 9.7348705,14.7364583 9.7348705,13.4445076 C9.7348705,11.4180871 10.9073875,9.90539773 12.3679028,9.90539773 C13.6112607,9.90539773 14.2117536,10.8407197 14.2117536,11.9589962 C14.2117536,13.2078598 13.4146275,15.0791667 13.0048093,16.8099432 C12.6631837,18.2623106 13.7317566,19.4442235 15.1604927,19.4442235 C17.7478425,19.4442235 19.4923836,16.1172348 19.4923836,12.1744318 C19.4923836,9.1782197 17.4744097,6.934375 13.8085561,6.934375 C9.66535368,6.934375 7.08396247,10.0273674 7.08396247,13.4829545 C7.08396247,14.6734848 7.43419483,15.514678 7.9843708,16.165625 C8.23661754,16.4625947 8.27104492,16.5832386 8.18100408,16.9266098 C8.11479759,17.1791667 7.96450885,17.7850379 7.90293681,18.025 C7.81090978,18.3710227 7.53085631,18.4943182 7.21769959,18.3657197 C5.31029049,17.5881629 4.42179934,15.4947917 4.42179934,13.1422348 C4.42179934,9.25776515 7.69306222,4.60037879 14.1832849,4.60037879 C19.3970463,4.60037879 22.829853,8.378125 22.829853,12.4329545 C22.829853,17.7982955 19.8505608,21.8047348 15.4604081,21.8047348 C13.9853274,21.8047348 12.5976393,21.0066288 12.1229388,20.1017992 C12.1229388,20.1017992 11.330447,23.2517992 11.1622825,23.8609848 C10.8722981,24.9142992 10.3055705,25.9676136 9.78849776,26.7889205 C11.0159662,27.1528409 12.3142755,27.3503788 13.6582674,27.3503788 C21.2011732,27.3503788 27.3166671,21.2273674 27.3166671,13.6751894 C27.3166671,6.12301136 21.2011732,0 13.6582674,0"></path>
                        </g>
                    </g>
                </g>
            </g>
        </g>
    </g>
</svg>