<?xml version="1.0" encoding="utf-8"?>
<!-- Generator: Adobe Illustrator 20.1.0, SVG Export Plug-In . SVG Version: 6.00 Build 0)  -->
<svg width="28px" height="28px" version="1.1" id="Layer_1" xmlns="http://www.w3.org/2000/svg" xmlns:xlink="http://www.w3.org/1999/xlink" x="0px" y="0px"
	 viewBox="0 0 28 28" style="enable-background:new 0 0 28 28;" xml:space="preserve">
<style type="text/css">
	.st0{filter:url(#Adobe_OpacityMaskFilter);}
	.st1{fill:#FFFFFF;}
	.st2{mask:url(#mask-2);fill:#252C26;}
</style>
<title>Blog icon</title>
<g id="Symbols">
	<g id="PANEL-FOOTER" transform="translate(-1157.000000, -89.000000)">
		<g id="Group-6" transform="translate(1001.000000, 89.000000)">
			<g id="Group">
				<g id="Page-1" transform="translate(156.000000, 0.000000)">
					<g>
						<g id="Group-3" transform="translate(0.000000, 0.172083)">
							<g id="Clip-2">
							</g>
							<defs>
								<filter id="Adobe_OpacityMaskFilter" filterUnits="userSpaceOnUse" x="0" y="0.5" width="27.3" height="27.4">
									<feColorMatrix  type="matrix" values="1 0 0 0 0  0 1 0 0 0  0 0 1 0 0  0 0 0 1 0"/>
								</filter>
							</defs>
							<mask maskUnits="userSpaceOnUse" x="0" y="0.5" width="27.3" height="27.4" id="mask-2">
								<g class="st0">
									<polygon id="path-1" class="st1" points="0,27.8 27.3,27.8 27.3,0.5 0,0.5 									"/>
								</g>
							</mask>
							<path id="Fill-1" class="st2" d="M25.8,0.5H1.6C0.7,0.5,0,1.2,0,2.1v24.2c0,0.9,0.7,1.6,1.6,1.6h24.2c0.9,0,1.6-0.7,1.6-1.6
								V2.1C27.3,1.2,26.6,0.5,25.8,0.5"/>
						</g>
					</g>
				</g>
			</g>
		</g>
	</g>
</g>
<g>
	<path class="st1" d="M13.8,3.6c1.6,0,3.3-0.1,4.9,0c1.9,0.1,3.5,0.8,4.7,2.4c0.7,1,1.1,2.1,1.2,3.3c0.1,3.4,0.1,6.8,0,10.2
		c-0.1,3.3-2.5,5.6-5.8,5.7c-3.3,0.1-6.6,0.1-9.9,0c-3.4-0.1-5.8-2.5-5.9-5.8c-0.1-3.3-0.1-6.6,0-9.9C3,6.1,5.4,3.8,8.8,3.6
		C10.5,3.6,12.1,3.6,13.8,3.6C13.8,3.6,13.8,3.6,13.8,3.6z M13.7,23.3C13.7,23.3,13.7,23.4,13.7,23.3c1.6,0,3.1,0,4.7-0.1
		c2.6-0.1,4.1-1.6,4.2-4.2c0.1-3.1,0.1-6.3,0-9.4c-0.1-2.5-1.6-4.1-4.1-4.1c-3.1-0.1-6.3-0.1-9.4,0c-1.5,0-2.8,0.5-3.5,1.9
		C5.2,8.1,4.9,8.9,4.9,9.7c-0.1,3.2-0.1,6.3,0,9.5c0.1,2.4,1.3,3.8,3.7,4C10.3,23.4,12,23.3,13.7,23.3z"/>
	<path class="st1" d="M8.1,14.4c0-3.1,2.5-5.6,5.6-5.6c3.1,0,5.6,2.6,5.6,5.6c0,3.1-2.5,5.6-5.6,5.6C10.7,20,8.1,17.5,8.1,14.4z
		 M17.4,14.4c0-2-1.6-3.6-3.6-3.6c-2,0-3.6,1.6-3.6,3.6c0,2,1.6,3.7,3.6,3.7C15.7,18.1,17.4,16.5,17.4,14.4z"/>
	<path class="st1" d="M19.6,7.3c0.7,0,1.3,0.6,1.3,1.3c0,0.7-0.6,1.3-1.3,1.3c-0.7,0-1.3-0.6-1.3-1.3C18.3,7.8,18.9,7.3,19.6,7.3z"
		/>
</g>
</svg>
