<?xml version="1.0" encoding="UTF-8" standalone="no"?>
<svg width="28px" height="28px" viewBox="0 0 28 28" version="1.1" xmlns="http://www.w3.org/2000/svg" xmlns:xlink="http://www.w3.org/1999/xlink">
    <!-- Generator: Sketch 3.8.1 (29687) - http://www.bohemiancoding.com/sketch -->
    <title>tis-icon-linkedin</title>
    <desc>Created with Sketch.</desc>
    <defs>
        <polygon id="path-1" points="0 27.3501136 27.3167995 27.3501136 27.3167995 -0.000265151515 0 -0.000265151515"></polygon>
    </defs>
    <g id="Symbols" stroke="none" stroke-width="1" fill="none" fill-rule="evenodd">
        <g id="PANEL-FOOTER" transform="translate(-1079.000000, -90.000000)">
            <g id="Group-6" transform="translate(1001.000000, 89.000000)">
                <g id="Group">
                    <g id="Page-1" transform="translate(78.000000, 1.000000)">
                        <g>
                            <path id="Fill-1" fill="#252C26"></path>
                            <g id="Clip-4">
                                <mask id="mask-2" fill="white">
                                    <use xlink:href="#path-1"></use>
                                </mask>
                                <g></g>
                            </g>
                            <path d="M5.20316838,22.1683902 L9.10802742,22.1683902 L9.10802742,10.4016288 L5.20316838,10.4016288 L5.20316838,22.1683902 Z M6.95565429,5.21128788 C8.13810227,5.21128788 8.86637371,6.06640152 8.88954598,7.18799242 C8.88954598,8.28505682 8.13810227,9.16469697 6.93314408,9.16469697 L6.91063387,9.16469697 C5.74937196,9.16469697 4.99991445,8.28505682 4.99991445,7.18799242 C4.99991445,6.06640152 5.77188217,5.21128788 6.95565429,5.21128788 L6.95565429,5.21128788 Z M23.4039957,22.1683902 L19.5554122,22.1683902 L19.5554122,16.022178 C19.5554122,14.4796591 19.1177873,13.4243561 17.7254647,13.4243561 C16.6608643,13.4243561 16.025944,14.135625 15.7492009,14.8217045 C15.6472429,15.0669697 15.6220844,15.409678 15.6220844,15.7530492 L15.6220844,22.1683902 L11.6483706,22.1683902 C11.6483706,22.1683902 11.6993496,11.4350568 11.6483706,10.356553 L15.6220844,10.356553 L15.6220844,11.9839205 C16.1325365,11.2030492 17.0461861,10.0860985 19.0926288,10.0860985 C21.6250272,10.0860985 23.4039957,12.0555114 23.4039957,15.5833523 L23.4039957,22.1683902 Z M25.609334,-0.000265151515 L24.7148843,-0.000265151515 L2.60191522,-0.000265151515 L1.70746549,-0.000265151515 C0.764685009,-0.000265151515 0,0.76469697 0,1.70929924 L0,2.60418561 L0,24.7463258 L0,25.6405492 C0,26.5858144 0.764685009,27.3501136 1.70746549,27.3501136 L2.60191522,27.3501136 L24.7148843,27.3501136 L25.609334,27.3501136 C26.5521145,27.3501136 27.3167995,26.5858144 27.3167995,25.6405492 L27.3167995,24.7463258 L27.3167995,2.60418561 L27.3167995,1.70929924 C27.3167995,0.76469697 26.5521145,-0.000265151515 25.609334,-0.000265151515 L25.609334,-0.000265151515 Z" id="Fill-3" fill="#252C26"></path>
                        </g>
                    </g>
                </g>
            </g>
        </g>
    </g>
</svg>