<?xml version="1.0" encoding="UTF-8" standalone="no"?>
<svg width="26px" height="26px" viewBox="0 0 26 26" version="1.1" xmlns="http://www.w3.org/2000/svg" xmlns:xlink="http://www.w3.org/1999/xlink">
    <!-- Generator: Sketch 3.8.1 (29687) - http://www.bohemiancoding.com/sketch -->
    <title>Facebook logo</title>
    <defs>
        <polygon id="path-1" points="25.7631791 25.7949111 0 25.7949111 0 0 25.7631791 0"></polygon>
    </defs>
    <g id="Symbols" stroke="none" stroke-width="1" fill="none" fill-rule="evenodd">
        <g id="Page-1">
            <g id="facebook" transform="translate(0.000000, 0.162162)">
                <mask id="mask-2" fill="white">
                    <use xlink:href="#path-1"></use>
                </mask>
                <g id="Clip-2"></g>
                <path d="M21.8674345,14.4686722 L18.3276082,14.4686722 L18.3276082,23.952739 L14.722218,23.952739 L14.722218,14.4686722 L12.2170526,14.4686722 L12.2170526,11.0551584 L14.722218,11.0551584 L14.722218,8.13929237 C14.722218,5.84736167 16.2008401,3.74236148 19.610163,3.74236148 C20.9901271,3.74236148 22.0104263,3.87615122 22.0104263,3.87615122 L21.9305007,7.06272263 C21.9305007,7.06272263 20.8895957,7.05334485 19.7537792,7.05334485 C18.5242999,7.05334485 18.3276082,7.61976307 18.3276082,8.56129271 L18.3276082,8.72196543 L18.3276082,11.0551584 L22.02791,11.0551584 L21.8674345,14.4686722 Z M24.2914256,0 L1.4720657,0 C0.662819826,0 -0.000312209057,0.664572378 -0.000312209057,1.47356265 L-0.000312209057,24.3209733 C-0.000312209057,25.1305888 0.662819826,25.7951612 1.4720657,25.7951612 L24.2914256,25.7951612 C25.1006715,25.7951612 25.7631791,25.1305888 25.7631791,24.3209733 L25.7631791,1.47356265 C25.7631791,0.664572378 25.1006715,0 24.2914256,0 L24.2914256,0 Z" id="Fill-1" fill="#252C26" mask="url(#mask-2)"></path>
            </g>
        </g>
    </g>
</svg>